{"title":"Kathakali 2016 Movies DVDScr XviD Clean Audio New +Sample B3STY","uid":13229650,"size":739717427,"categoryP":"video","categoryS":"movies","magnet":"?xt=urn:btih:2a2c9fee3cc485ec63e165a9ebae346e270a2cd4&amp;dn=Kathakali+2016+Movies+DVDScr+XviD+Clean+Audio+New+%2BSample+B3STY&amp;tr=udp%3A%2F%2Ftracker.leechers-paradise.org%3A6969&amp;tr=udp%3A%2F%2Fzer0day.ch%3A1337&amp;tr=udp%3A%2F%2Fopen.demonii.com%3A1337&amp;tr=udp%3A%2F%2Ftracker.coppersurfer.tk%3A6969&amp;tr=udp%3A%2F%2Fexodus.desync.com%3A6969","seeders":7,"leechers":6,"uploader":"basicssom","files":2,"time":1452929667,"description":"----------------------------------------------------------------\r\nKathakali 2016 Tamil Movies DVDScr XviD AAC Clean Audio New Source with Sample B3STY\r\n\r\nSCREEN SHOTS &amp; POSTER:\r\n  \nhttp://doctorhosts.com/2016/1/Kathakali/11.html  \nhttp://doctorhosts.com/2016/1/Kathakali/1.html  \nhttp://doctorhosts.com/2016/1/Kathakali/2.html  \nhttp://doctorhosts.com/2016/1/Kathakali/3.html  \nhttp://doctorhosts.com/2016/1/Kathakali/4.html  \nhttp://doctorhosts.com/2016/1/Kathakali/5.html  \nhttp://doctorhosts.com/2016/1/Kathakali/6.html  \nhttp://doctorhosts.com/2016/1/Kathakali/7.html  \nhttp://doctorhosts.com/2016/1/Kathakali/8.html  \nhttp://doctorhosts.com/2016/1/Kathakali/9.html  \nhttp://doctorhosts.com/2016/1/Kathakali/10.html\r\n\r\nFormat                                   : Matroska\r\nFormat version                           : Version 4 / Version 2\r\nFile size                                : 698 MiB\r\nDuration                                 : 1h 58mn\r\nOverall bit rate                         : 821 Kbps\r\nMovie name                               : Kathakali 2016 Tamil Movies DVDScr XviD AAC Clean Audio New Source B3STY\r\n\r\nVideo\r\nID                                       : 1\r\nFormat                                   : AVC\r\nFormat/Info                              : Advanced Video Codec\r\nFormat profile                           :   \r\nFormat settings, CABAC                   : Yes\r\nFormat settings, ReFrames                : 4 frames\r\nCodec ID                                 : V_MPEG4/ISO/AVC\r\nDuration                                 : 1h 58mn\r\nBit rate                                 : 723 Kbps\r\nWidth                                    : 608 pixels\r\nHeight                                   : 256 pixels\r\nDisplay aspect ratio                     : 2.40:1\r\nFrame rate mode                          : Constant\r\nFrame rate                               : 25.000 fps\r\nColor space                              : YUV\r\nChroma subsampling                       : 4:2:0\r\nBit depth                                : 8 bits\r\nScan type                                : Progressive\r\nBits/(Pixel*Frame)                       : 0.186\r\nStream size                              : 603 MiB (86%)\r\nTitle                                    : B3STY\r\nWriting library                          : XviD\r\nLanguage                                 : Tamil\r\nDefault                                  : Yes\r\nForced                                   : Yes\r\n\r\nAudio\r\nID                                       : 2\r\nFormat                                   : MPEG Audio\r\nFormat version                           : Version 1\r\nFormat profile                           : Layer 3\r\nMode                                     : Joint stereo\r\nMode extension                           : MS Stereo\r\nCodec ID                                 : A_MPEG/L3\r\nCodec ID/Hint                            : MP3\r\nDuration                                 : 1h 58mn\r\nBit rate mode                            : Constant\r\nBit rate                                 : 96.0 Kbps\r\nChannel(s)                               : 2 channels\r\nSampling rate                            : 48.0 KHz\r\nCompression mode                         : Lossy\r\nStream size                              : 81.7 MiB (12%)\r\nSource                                   : tamilrockers\r\nWriting library                          : LAME3.98r\r\nEncoding settings                        : -m j -V 4 -q 3 -lowpass 15.1 -b 96\r\nLanguage                                 : Tamil\r\nDefault                                  : Yes\r\nForced                                   : Yes\r\n\r\nIMDB                                     \r\nna","torrent":{"xt":"urn:btih:2a2c9fee3cc485ec63e165a9ebae346e270a2cd4","amp;dn":"Kathakali+2016+Movies+DVDScr+XviD+Clean+Audio+New+%2BSample+B3STY","amp;tr":["udp%3A%2F%2Ftracker.leechers-paradise.org%3A6969","udp%3A%2F%2Fzer0day.ch%3A1337","udp%3A%2F%2Fopen.demonii.com%3A1337","udp%3A%2F%2Ftracker.coppersurfer.tk%3A6969","udp%3A%2F%2Fexodus.desync.com%3A6969"],"infoHash":"2a2c9fee3cc485ec63e165a9ebae346e270a2cd4","infoHashBuffer":{"type":"Buffer","data":[42,44,159,238,60,196,133,236,99,225,101,169,235,174,52,110,39,10,44,212]},"announce":[],"urlList":[]}}